<?xml version="1.0" encoding="utf-8"?>
<!-- Generator: Adobe Illustrator 23.0.6, SVG Export Plug-In . SVG Version: 6.00 Build 0)  -->
<svg version="1.1" id="Layer_1" xmlns="http://www.w3.org/2000/svg" xmlns:xlink="http://www.w3.org/1999/xlink" x="0px" y="0px"
	 viewBox="0 0 120 39" style="enable-background:new 0 0 120 39;" xml:space="preserve">
<style type="text/css">
	.st0{fill:none;stroke:#2D2D2D;stroke-width:0.72;stroke-linecap:square;}
	.st1{filter:url(#Adobe_OpacityMaskFilter);}
	.st2{fill-rule:evenodd;clip-rule:evenodd;fill:#FFFFFF;}
	.st3{mask:url(#mask-2_1_);fill-rule:evenodd;clip-rule:evenodd;fill:#1A1919;}
	.st4{fill-rule:evenodd;clip-rule:evenodd;fill:#1A1919;}
	.st5{fill-rule:evenodd;clip-rule:evenodd;fill:#992828;}
	.st6{fill-rule:evenodd;clip-rule:evenodd;fill:#E49547;}
	.st7{fill-rule:evenodd;clip-rule:evenodd;fill:#EAB381;}
	.st8{fill-rule:evenodd;clip-rule:evenodd;fill:#D67132;}
	.st9{fill-rule:evenodd;clip-rule:evenodd;fill:#E8B541;}
	.st10{fill-rule:evenodd;clip-rule:evenodd;fill:#DC8634;}
	.st11{fill-rule:evenodd;clip-rule:evenodd;fill:#CA5A2D;}
	.st12{fill-rule:evenodd;clip-rule:evenodd;fill:#D9679A;}
	.st13{fill-rule:evenodd;clip-rule:evenodd;fill:#CE532E;}
	.st14{fill-rule:evenodd;clip-rule:evenodd;fill:#C2412B;}
	.st15{fill-rule:evenodd;clip-rule:evenodd;fill:#B0302B;}
	.st16{fill-rule:evenodd;clip-rule:evenodd;fill:#B0492C;}
	.st17{enable-background:new    ;}
	.st18{fill:#2D2D2D;}
</style>
<g>
	<g id="logo">
		<line id="Line" class="st0" x1="53" y1="24" x2="53" y2="38"/>
	</g>
</g>
<g id="pwc-logo">
	<g id="Group-3" transform="translate(0.000000, 24.063253)">
		<g id="Clip-2">
		</g>
		<defs>
			<filter id="Adobe_OpacityMaskFilter" filterUnits="userSpaceOnUse" x="0" y="0" width="11.6" height="13.9">
				<feColorMatrix  type="matrix" values="1 0 0 0 0  0 1 0 0 0  0 0 1 0 0  0 0 0 1 0"/>
			</filter>
		</defs>
		<mask maskUnits="userSpaceOnUse" x="0" y="0" width="11.6" height="13.9" id="mask-2_1_">
			<g class="st1">
				<polygon id="path-1_1_" class="st2" points="11.6,13.9 0,13.9 0,0 11.6,0 				"/>
			</g>
		</mask>
		<path id="Fill-1" class="st3" d="M4.5,8.5c0.2,0,0.4,0,0.5,0c2,0,3-1.2,3-3.5c0-1.9-0.9-3-2.5-3c-0.3,0-0.5,0-1.1,0.1V8.5L4.5,8.5
			z M0,12.9l1.1-0.1l0.2-0.2V2.1H0V1.2L3.5,0h1v1.3C6.3,0.3,7,0,7.9,0c2.1,0,3.7,2,3.7,4.6c0,3.1-2.2,5.1-5.5,5.1
			c-0.4,0-1,0-1.6-0.1v2.9l0.2,0.2l1.3,0.1l0,1H0V12.9L0,12.9z"/>
	</g>
	<path id="Fill-4" class="st4" d="M15.9,24.1c0.2,0.7,0.2,1.2,0.2,1.6l0.2,4.7l2.8-5.3v-0.6l2.9-0.2l0.4,7.3l2.5-3.4l-0.5-3.5
		c0.5-0.5,0.9-0.6,1.5-0.6c0.9,0,1.6,0.6,1.6,1.5c0,0.9-0.5,2-1.8,3.8c-0.4,0.6-1.6,2-3.5,4.4h-2.3l-0.4-6.6l-3.6,6.6h-2.4l0.2-0.9
		L13.2,26l-1.9-0.3v-0.8l3.5-0.8H15.9"/>
	<path id="Fill-5" class="st4" d="M33.4,25.1c-1.6,0.2-2.5,1.5-2.5,3.5c0,2.1,1.1,3.5,2.8,3.5c0.8,0,1.5-0.2,3-1v1.7
		c-1.8,0.8-2.9,1.1-4.4,1.1c-1.6,0-2.7-0.4-3.6-1.3c-0.9-0.9-1.4-2.1-1.4-3.5c0-3,2.3-5,5.6-5c2.2,0,3.7,1,3.7,2.4
		c0,1-0.7,1.6-1.8,1.6c-0.5,0-1-0.1-1.5-0.5V25.1"/>
	<polygon id="Fill-6" class="st5" points="22.3,18.7 31.7,18.7 31.7,16.2 22.3,16.2 	"/>
	<polygon id="Fill-7" class="st6" points="31.7,2 40.9,2 40.9,0 31.7,0 	"/>
	<polygon id="Fill-8" class="st7" points="40.9,4.8 42.6,4.8 42.6,2 40.9,2 	"/>
	<polygon id="Fill-9" class="st8" points="31.7,4.8 40.9,4.8 40.9,2 31.7,2 	"/>
	<polygon id="Fill-10" class="st9" points="42.6,11.8 47.2,11.8 47.2,4.8 42.6,4.8 	"/>
	<polygon id="Fill-11" class="st10" points="40.9,11.8 42.6,11.8 42.6,4.8 40.9,4.8 	"/>
	<polyline id="Fill-12" class="st11" points="37.3,11.8 40.9,11.8 40.9,4.8 31.7,4.8 31.7,9.5 37.3,9.5 37.3,11.8 	"/>
	<polygon id="Fill-13" class="st12" points="47.2,16.2 49.7,16.2 49.7,11.8 47.2,11.8 	"/>
	<polygon id="Fill-14" class="st13" points="42.6,16.2 47.2,16.2 47.2,11.8 42.6,11.8 	"/>
	<polygon id="Fill-15" class="st14" points="40.9,16.2 42.6,16.2 42.6,11.8 40.9,11.8 	"/>
	<polygon id="Fill-16" class="st15" points="37.3,16.2 40.9,16.2 40.9,11.8 37.3,11.8 	"/>
	<polygon id="Fill-17" class="st16" points="31.7,11.8 37.3,11.8 37.3,9.5 31.7,9.5 	"/>
	<polygon id="Fill-18" class="st5" points="31.7,16.2 37.3,16.2 37.3,11.8 31.7,11.8 	"/>
</g>
<g>
	<g class="st17">
		<path class="st18" d="M71.9,25.9L71,25.8v-0.6h3.3v0.6l-0.8,0.1L73.3,26l2.6,7.1l2.5-7.1l-0.1-0.2l-0.9-0.1v-0.6h2.8v0.6l-0.9,0.2
			l-3.2,8.7h-1L71.9,25.9z"/>
		<path class="st18" d="M83.9,33.8c-0.5,0.3-0.9,0.6-1.3,0.7c-0.3,0.1-0.7,0.2-1,0.2c-0.5,0-1-0.2-1.3-0.5c-0.3-0.3-0.5-0.8-0.5-1.3
			c0-0.4,0.1-0.8,0.3-1.1c0.2-0.3,0.6-0.5,1.1-0.7c0.2-0.1,0.3-0.1,0.5-0.2c0.1-0.1,0.3-0.1,0.5-0.2c0.2-0.1,0.4-0.1,0.7-0.2
			c0.3-0.1,0.6-0.2,1-0.3v-0.4c0-0.6-0.1-1-0.3-1.2c-0.2-0.2-0.5-0.3-1-0.3c-0.2,0-0.4,0-0.5,0c-0.2,0-0.4,0.1-0.6,0.2v1.2h-1
			c-0.2,0-0.3,0-0.3-0.1c-0.1-0.1-0.1-0.2-0.1-0.3c0-0.2,0.1-0.4,0.2-0.6c0.1-0.2,0.3-0.4,0.6-0.5c0.2-0.1,0.5-0.2,0.9-0.3
			c0.3-0.1,0.7-0.1,1.1-0.1c0.7,0,1.3,0.2,1.6,0.5s0.5,0.8,0.5,1.5v4.1l0.2,0.2l0.7,0.1v0.5h-2L83.9,33.8z M83.9,30.8
			c-0.3,0.1-0.5,0.2-0.7,0.2s-0.4,0.1-0.5,0.2c-0.1,0-0.2,0.1-0.3,0.1c-0.1,0-0.2,0.1-0.3,0.1c-0.3,0.2-0.6,0.3-0.7,0.5
			c-0.2,0.2-0.2,0.5-0.2,0.7c0,0.4,0.1,0.6,0.3,0.8c0.2,0.2,0.5,0.3,0.8,0.3c0.2,0,0.5,0,0.7-0.1c0.3-0.1,0.6-0.3,1-0.5V30.8z"/>
		<path class="st18" d="M86.7,34.1l0.8-0.1l0.2-0.2v-5.1h-1v-0.4l1.6-0.5h0.5v0.8c0.3-0.2,0.6-0.3,0.8-0.4c0.2-0.1,0.4-0.2,0.6-0.3
			c0.2-0.1,0.3-0.1,0.5-0.1s0.3,0,0.5,0c0.6,0,1,0.2,1.4,0.6c0.3,0.4,0.5,0.9,0.5,1.6v3.9l0.2,0.2l0.8,0.1v0.5h-3.1v-0.5l0.7-0.1
			l0.2-0.2v-3.7c0-0.5-0.1-0.9-0.3-1.1c-0.2-0.2-0.5-0.3-1-0.3c-0.3,0-0.5,0-0.7,0.1s-0.5,0.2-0.9,0.4v4.7l0.2,0.2l0.7,0.1v0.5h-3.1
			V34.1z"/>
		<path class="st18" d="M98.8,34.3c-0.4,0.1-0.7,0.2-1,0.2c-0.3,0-0.6,0.1-0.9,0.1c-0.5,0-0.9-0.1-1.1-0.3s-0.3-0.6-0.3-1.1v-4.5
			h-0.9v-0.4l0.9-0.4l0.6-1.3h0.5V28h2.1v0.6h-2.1v3.7c0,0.3,0,0.5,0.1,0.7c0,0.2,0.1,0.3,0.2,0.5s0.2,0.2,0.3,0.3
			c0.1,0,0.3,0.1,0.5,0.1c0.2,0,0.3,0,0.5,0c0.2,0,0.3,0,0.5-0.1V34.3z"/>
		<path class="st18" d="M103.7,33.8c-0.5,0.3-0.9,0.6-1.3,0.7c-0.3,0.1-0.7,0.2-1,0.2c-0.5,0-1-0.2-1.3-0.5
			c-0.3-0.3-0.5-0.8-0.5-1.3c0-0.4,0.1-0.8,0.3-1.1c0.2-0.3,0.6-0.5,1.1-0.7c0.2-0.1,0.3-0.1,0.5-0.2c0.1-0.1,0.3-0.1,0.5-0.2
			s0.4-0.1,0.7-0.2c0.3-0.1,0.6-0.2,1-0.3v-0.4c0-0.6-0.1-1-0.3-1.2c-0.2-0.2-0.5-0.3-1-0.3c-0.2,0-0.4,0-0.5,0
			c-0.2,0-0.4,0.1-0.6,0.2v1.2h-1c-0.2,0-0.3,0-0.3-0.1c-0.1-0.1-0.1-0.2-0.1-0.3c0-0.2,0.1-0.4,0.2-0.6c0.1-0.2,0.3-0.4,0.6-0.5
			s0.5-0.2,0.9-0.3c0.3-0.1,0.7-0.1,1.1-0.1c0.7,0,1.3,0.2,1.6,0.5c0.3,0.3,0.5,0.8,0.5,1.5v4.1l0.2,0.2l0.7,0.1v0.5h-2L103.7,33.8z
			 M103.7,30.8c-0.3,0.1-0.5,0.2-0.7,0.2s-0.4,0.1-0.5,0.2s-0.2,0.1-0.3,0.1s-0.2,0.1-0.3,0.1c-0.3,0.2-0.6,0.3-0.7,0.5
			c-0.2,0.2-0.2,0.5-0.2,0.7c0,0.4,0.1,0.6,0.3,0.8c0.2,0.2,0.5,0.3,0.8,0.3c0.2,0,0.5,0,0.7-0.1c0.3-0.1,0.6-0.3,1-0.5V30.8z"/>
		<path class="st18" d="M110.4,33.4c0.9,0.1,1.5,0.3,1.8,0.6c0.4,0.3,0.5,0.6,0.5,1.1c0,0.3-0.1,0.7-0.3,1s-0.5,0.6-0.8,0.8
			s-0.7,0.4-1.2,0.5c-0.4,0.1-0.9,0.2-1.4,0.2c-0.8,0-1.4-0.2-1.9-0.5c-0.4-0.3-0.7-0.8-0.7-1.3c0-0.5,0.1-0.8,0.4-1.1
			c0.3-0.3,0.6-0.5,1.1-0.6c-0.1-0.2-0.1-0.4-0.1-0.6c0-0.2,0.1-0.4,0.2-0.6c0.1-0.2,0.3-0.5,0.5-0.8c-0.6-0.1-1-0.4-1.3-0.8
			c-0.3-0.4-0.4-0.8-0.4-1.3c0-0.3,0.1-0.6,0.2-0.9c0.1-0.3,0.3-0.5,0.6-0.7c0.2-0.2,0.5-0.4,0.8-0.5c0.3-0.1,0.7-0.2,1.1-0.2
			c0.3,0,0.6,0,0.8,0.1c0.3,0.1,0.5,0.2,0.8,0.3h2v0.6h-1.5c0.1,0.2,0.2,0.4,0.3,0.6c0.1,0.2,0.1,0.4,0.1,0.7c0,0.3-0.1,0.6-0.2,0.9
			c-0.1,0.3-0.3,0.5-0.5,0.7s-0.5,0.3-0.9,0.4c-0.3,0.1-0.7,0.2-1.1,0.2c0,0-0.1,0-0.1,0s-0.1,0-0.1,0c-0.1,0.2-0.2,0.4-0.2,0.6
			c0,0,0,0.1,0,0.1s0,0.1,0,0.2L110.4,33.4z M109,34.2c-0.8,0.3-1.2,0.8-1.2,1.4c0,0.4,0.2,0.8,0.5,1c0.4,0.3,0.8,0.4,1.4,0.4
			c0.3,0,0.6,0,0.8-0.1c0.3-0.1,0.5-0.2,0.7-0.3c0.2-0.1,0.3-0.3,0.4-0.5s0.2-0.4,0.2-0.6c0-0.2,0-0.3-0.1-0.4
			c0-0.1-0.1-0.2-0.2-0.3s-0.3-0.1-0.4-0.2s-0.4-0.1-0.7-0.2L109,34.2z M109.5,28.2c-0.4,0-0.7,0.2-1,0.5c-0.2,0.3-0.4,0.7-0.4,1.2
			c0,0.5,0.1,0.9,0.4,1.3c0.2,0.3,0.6,0.5,1,0.5s0.8-0.2,1-0.5c0.2-0.3,0.4-0.7,0.4-1.2c0-0.5-0.1-1-0.4-1.3S109.9,28.2,109.5,28.2z
			"/>
		<path class="st18" d="M119.4,33.9c-0.5,0.3-0.9,0.5-1.3,0.6c-0.4,0.1-0.8,0.2-1.3,0.2c-0.5,0-0.9-0.1-1.3-0.2
			c-0.4-0.2-0.7-0.4-1-0.7c-0.3-0.3-0.5-0.7-0.6-1.1s-0.2-0.9-0.2-1.4c0-0.5,0.1-1,0.2-1.4c0.2-0.4,0.4-0.8,0.7-1.1
			c0.3-0.3,0.6-0.6,1-0.7c0.4-0.2,0.8-0.3,1.3-0.3c0.8,0,1.4,0.2,1.8,0.7c0.4,0.5,0.7,1.1,0.7,2c0,0,0,0.1,0,0.2s0,0.2,0,0.3h-4.5
			c0,0.2,0,0.3,0,0.4s0,0.2,0,0.3c0,0.1,0,0.2,0.1,0.3c0,0.1,0,0.2,0.1,0.3c0.2,0.5,0.4,0.9,0.8,1.2c0.4,0.3,0.8,0.4,1.4,0.4
			c0.2,0,0.3,0,0.5,0s0.3-0.1,0.5-0.1c0.2-0.1,0.4-0.1,0.6-0.2s0.4-0.2,0.7-0.4V33.9z M118.2,30.3c0-0.3,0-0.6,0-0.8
			c0-0.2-0.1-0.3-0.2-0.5c-0.3-0.5-0.7-0.7-1.2-0.7c-0.5,0-0.9,0.2-1.2,0.5c-0.3,0.3-0.5,0.8-0.6,1.5H118.2z"/>
	</g>
</g>
</svg>
